<svg height="1038" width="720" xmlns="http://www.w3.org/2000/svg">
<rect height="1038" fill="#555" width="720"></rect>
<text fill="#7f7" font-family="Courier New" font-size="12" xml:space="preserve">
<tspan x="10" y="26">5 megabytes installed</tspan>
<tspan x="10" y="42"></tspan>
<tspan x="10" y="58">node_modules</tspan>
<tspan x="10" y="74">└─┬ hyperstream@1.2.2 </tspan>
<tspan x="10" y="90">  ├─┬ concat-stream@1.6.0 </tspan>
<tspan x="10" y="106">  │ ├── inherits@2.0.3 </tspan>
<tspan x="10" y="122">  │ ├─┬ readable-stream@2.2.9 </tspan>
<tspan x="10" y="138">  │ │ ├── buffer-shims@1.0.0 </tspan>
<tspan x="10" y="154">  │ │ ├── core-util-is@1.0.2 </tspan>
<tspan x="10" y="170">  │ │ ├── isarray@1.0.0 </tspan>
<tspan x="10" y="186">  │ │ ├── process-nextick-args@1.0.7 </tspan>
<tspan x="10" y="202">  │ │ ├── string_decoder@1.0.0 </tspan>
<tspan x="10" y="218">  │ │ └── util-deprecate@1.0.2 </tspan>
<tspan x="10" y="234">  │ └── typedarray@0.0.6 </tspan>
<tspan x="10" y="250">  ├── ent@2.2.0 </tspan>
<tspan x="10" y="266">  ├─┬ stream-combiner2@1.0.2 </tspan>
<tspan x="10" y="282">  │ └─┬ duplexer2@0.0.2 </tspan>
<tspan x="10" y="298">  │   └─┬ readable-stream@1.1.14 </tspan>
<tspan x="10" y="314">  │     ├── isarray@0.0.1 </tspan>
<tspan x="10" y="330">  │     └── string_decoder@0.10.31 </tspan>
<tspan x="10" y="346">  ├─┬ through2@0.5.1 </tspan>
<tspan x="10" y="362">  │ ├─┬ readable-stream@1.0.34 </tspan>
<tspan x="10" y="378">  │ │ ├── isarray@0.0.1 </tspan>
<tspan x="10" y="394">  │ │ └── string_decoder@0.10.31 </tspan>
<tspan x="10" y="410">  │ └── xtend@3.0.0 </tspan>
<tspan x="10" y="426">  ├─┬ trumpet@1.7.2 </tspan>
<tspan x="10" y="442">  │ ├─┬ html-select@2.3.24 </tspan>
<tspan x="10" y="458">  │ │ ├─┬ cssauron@1.4.0 </tspan>
<tspan x="10" y="474">  │ │ │ └── through@2.3.8 </tspan>
<tspan x="10" y="490">  │ │ ├── minimist@0.0.10 </tspan>
<tspan x="10" y="506">  │ │ ├─┬ readable-stream@1.1.14 </tspan>
<tspan x="10" y="522">  │ │ │ ├── isarray@0.0.1 </tspan>
<tspan x="10" y="538">  │ │ │ └── string_decoder@0.10.31 </tspan>
<tspan x="10" y="554">  │ │ ├── split@0.3.3 </tspan>
<tspan x="10" y="570">  │ │ ├─┬ stream-splicer@1.3.2 </tspan>
<tspan x="10" y="586">  │ │ │ ├── indexof@0.0.1 </tspan>
<tspan x="10" y="602">  │ │ │ ├── isarray@0.0.1 </tspan>
<tspan x="10" y="618">  │ │ │ ├─┬ readable-stream@1.1.14 </tspan>
<tspan x="10" y="634">  │ │ │ │ └── string_decoder@0.10.31 </tspan>
<tspan x="10" y="650">  │ │ │ ├─┬ readable-wrap@1.0.0 </tspan>
<tspan x="10" y="666">  │ │ │ │ └─┬ readable-stream@1.1.14 </tspan>
<tspan x="10" y="682">  │ │ │ │   ├── isarray@0.0.1 </tspan>
<tspan x="10" y="698">  │ │ │ │   └── string_decoder@0.10.31 </tspan>
<tspan x="10" y="714">  │ │ │ └─┬ through2@1.1.1 </tspan>
<tspan x="10" y="730">  │ │ │   └── xtend@4.0.1 </tspan>
<tspan x="10" y="746">  │ │ └─┬ through2@1.1.1 </tspan>
<tspan x="10" y="762">  │ │   └── xtend@4.0.1 </tspan>
<tspan x="10" y="778">  │ ├─┬ html-tokenize@1.2.5 </tspan>
<tspan x="10" y="794">  │ │ ├─┬ readable-stream@1.0.34 </tspan>
<tspan x="10" y="810">  │ │ │ ├── isarray@0.0.1 </tspan>
<tspan x="10" y="826">  │ │ │ └── string_decoder@0.10.31 </tspan>
<tspan x="10" y="842">  │ │ └─┬ through2@0.4.2 </tspan>
<tspan x="10" y="858">  │ │   └─┬ xtend@2.1.2 </tspan>
<tspan x="10" y="874">  │ │     └── object-keys@0.4.0 </tspan>
<tspan x="10" y="890">  │ ├─┬ readable-stream@1.1.14 </tspan>
<tspan x="10" y="906">  │ │ ├── isarray@0.0.1 </tspan>
<tspan x="10" y="922">  │ │ └── string_decoder@0.10.31 </tspan>
<tspan x="10" y="938">  │ └─┬ through2@1.1.1 </tspan>
<tspan x="10" y="954">  │   └── xtend@4.0.1 </tspan>
<tspan x="10" y="970">  └─┬ utf8-stream@0.0.0 </tspan>
<tspan x="10" y="986">    └─┬ readable-stream@1.0.34 </tspan>
<tspan x="10" y="1002">      ├── isarray@0.0.1 </tspan>
<tspan x="10" y="1018">      └── string_decoder@0.10.31</tspan>
</text>
</svg>
